<svg xmlns="http://www.w3.org/2000/svg" width="75.178" height="71.421" viewBox="0 0 75.178 71.421">
  <path id="Icon_core-graph" data-name="Icon core-graph" d="M66.271,2.25a10.016,10.016,0,0,0-5.377,18.469L54.356,43.6q-.3-.019-.61-.02a9.967,9.967,0,0,0-5.98,1.985L35.686,35.5a10.02,10.02,0,1,0-16.5,3.964L12.094,53.649q-.466-.044-.934-.045a10.033,10.033,0,1,0,5.674,1.768l6.7-13.4a10,10,0,0,0,9.391-2.248l11.7,9.747a10.02,10.02,0,1,0,14.5-4.315L65.662,22.27c.2.012.4.02.61.02a10.02,10.02,0,1,0,0-20.04ZM11.16,68.634a5.01,5.01,0,1,1,5.01-5.01A5.01,5.01,0,0,1,11.16,68.634ZM26.19,37.321a5.01,5.01,0,1,1,5.01-5.01,5.01,5.01,0,0,1-5.01,5.01ZM53.746,58.614a5.01,5.01,0,1,1,5.01-5.01A5.01,5.01,0,0,1,53.746,58.614ZM66.271,17.28a5.01,5.01,0,1,1,5.01-5.01,5.01,5.01,0,0,1-5.01,5.01Z" transform="translate(-1.113 -2.25)"/>
</svg>
