<svg xmlns="http://www.w3.org/2000/svg" width="36" height="31.505" viewBox="0 0 36 31.505">
  <path id="Icon_fa-solid-leaf" data-name="Icon fa-solid-leaf" d="M19.125,6.75A12.376,12.376,0,0,0,7.334,15.363,17.333,17.333,0,0,1,15.188,13.5h6.188a1.125,1.125,0,0,1,0,2.25H15.188a15.358,15.358,0,0,0-3.389.38A15.191,15.191,0,0,0,0,30.938v1.125a1.688,1.688,0,0,0,3.375,0V30.938a11.776,11.776,0,0,1,3.783-8.663A12.377,12.377,0,0,0,19.125,31.5h.07C28.484,31.451,36,22.3,36,11.011A24.1,24.1,0,0,0,34.516,2.6a.635.635,0,0,0-1.139-.007,7.861,7.861,0,0,1-6.94,4.155Z" transform="translate(0 -2.245)"/>
</svg>
