<svg xmlns="http://www.w3.org/2000/svg" width="41.232" height="36.002" viewBox="0 0 41.232 36.002">
  <path id="Icon_fa-solid-eraser" data-name="Icon fa-solid-eraser" d="M23.283,4.247,4.247,23.283a5.22,5.22,0,0,0,0,7.384l6.527,6.527a5.224,5.224,0,0,0,3.7,1.526H41.339a2.611,2.611,0,0,0,0-5.222H31.213L41.877,22.842a5.22,5.22,0,0,0,0-7.384L30.675,4.247a5.22,5.22,0,0,0-7.384,0Zm.547,29.259H14.463L7.935,26.979,18.11,16.8,29.32,28.015l-5.491,5.491Z" transform="translate(-2.718 -2.718)" fill="#fff"/>
</svg>
