<svg xmlns="http://www.w3.org/2000/svg" width="89.16" height="73.903" viewBox="0 0 89.16 73.903">
  <g id="Icon_feather-users" data-name="Icon feather-users" transform="translate(1 -1.955)">
    <path id="Path_34" data-name="Path 34" d="M62.708,45.453V37.8a15.3,15.3,0,0,0-15.3-15.3H16.8A15.3,15.3,0,0,0,1.5,37.8v7.651" transform="translate(0 27.906)" fill="none" stroke="#000" stroke-linecap="round" stroke-linejoin="round" stroke-width="5"/>
    <path id="Path_35" data-name="Path 35" d="M38.1,19.8A15.3,15.3,0,1,1,22.8,4.5,15.3,15.3,0,0,1,38.1,19.8Z" transform="translate(9.302 0)" fill="none" stroke="#000" stroke-linecap="round" stroke-linejoin="round" stroke-width="5"/>
    <path id="Path_36" data-name="Path 36" d="M50.778,73.056V65.405A15.3,15.3,0,0,0,39.3,50.6M24,4.695a15.3,15.3,0,0,1,0,29.647" transform="translate(34.882 0.302)" fill="none" stroke="#000" stroke-linecap="round" stroke-linejoin="round" stroke-width="5"/>
  </g>
</svg>
