<svg xmlns="http://www.w3.org/2000/svg" width="36.956" height="40.407" viewBox="0 0 36.956 40.407">
  <path id="Icon_weather-smoke" data-name="Icon weather-smoke" d="M7.608,22.523a8.548,8.548,0,0,1,1.931-5.469,8.383,8.383,0,0,1,4.883-3.06A10.646,10.646,0,0,1,24.838,5.64a10.337,10.337,0,0,1,6.554,2.279,10.4,10.4,0,0,1,3.754,5.838h.586a8.568,8.568,0,0,1,6.25,2.561A8.407,8.407,0,0,1,44.564,22.5a8.553,8.553,0,0,1-.8,3.689,8.88,8.88,0,0,1-2.235,2.973v.065a5.444,5.444,0,0,1-1.215,3.45,5.277,5.277,0,0,1-3.038,1.931,6.768,6.768,0,0,1-5.512,5.165,3.794,3.794,0,0,1-2.843,6.272,3.576,3.576,0,0,1-2.669-1.128,3.686,3.686,0,0,1-1.107-2.691,3.541,3.541,0,0,1,.217-1.237h-.217a4.669,4.669,0,0,1-4.622-4.622,4.205,4.205,0,0,1,.651-2.322,5.39,5.39,0,0,1-2.43-2.713H15.963v-.022a8.738,8.738,0,0,1-5.924-2.756,8.373,8.373,0,0,1-2.43-6.033Zm3.038-.543a6.224,6.224,0,0,0,6.228,6.25,6.1,6.1,0,0,0,2.973-.738A6.65,6.65,0,0,0,22.1,31.529a6.438,6.438,0,0,0,4.384,1.606,6.57,6.57,0,0,0,4.818-2,4.184,4.184,0,0,0,3.342,1.541,4.446,4.446,0,0,0,4.47-4.47,6.243,6.243,0,0,0,2.062-2.257,6.119,6.119,0,0,0,.76-2.973A5.869,5.869,0,0,0,40.094,18.6a6.178,6.178,0,0,0-4.449-1.8,6.109,6.109,0,0,0-3.32.955,7.176,7.176,0,0,0,.174-1.714A7.213,7.213,0,0,0,30.264,10.7a7.708,7.708,0,0,0-10.677-.087,7.162,7.162,0,0,0-2.322,5.143H16.9a6.048,6.048,0,0,0-4.405,1.823,5.985,5.985,0,0,0-1.845,4.405Z" transform="translate(-7.608 -5.64)"/>
</svg>
