<svg xmlns="http://www.w3.org/2000/svg" width="22.303" height="33.925" viewBox="0 0 22.303 33.925">
  <path id="Icon_core-plant" data-name="Icon core-plant" d="M27.355,8.88a21.3,21.3,0,0,0-7.667-7.6L19.125.95l-.563.326A21.17,21.17,0,0,0,7.973,19.62c0,.242,0,.488.012.731a10.713,10.713,0,0,0,3.644,8.017A11.314,11.314,0,0,0,18,30.989v3.886h2.25v-18H18v11.85a8.442,8.442,0,0,1-7.766-8.45c-.007-.218-.011-.438-.011-.655a19,19,0,0,1,8.9-16.057,19,19,0,0,1,8.9,16.057c0,.217,0,.437-.011.655A8.3,8.3,0,0,1,22.5,28.188v2.381a10.982,10.982,0,0,0,4.121-2.2,10.713,10.713,0,0,0,3.644-8.017c.008-.243.012-.489.012-.731A21.16,21.16,0,0,0,27.355,8.88Z" transform="translate(-7.973 -0.95)" fill="#fff"/>
</svg>
