<svg xmlns="http://www.w3.org/2000/svg" width="27.024" height="27.024" viewBox="0 0 27.024 27.024">
  <path id="Icon_weather-time-4" data-name="Icon weather-time-4" d="M4.488,17.364a13.249,13.249,0,0,1,1.824-6.792A13.5,13.5,0,0,1,11.244,5.64,13.486,13.486,0,0,1,23.256,4.9a13.633,13.633,0,0,1,4.308,2.88,13.231,13.231,0,0,1,2.88,4.32,13.419,13.419,0,0,1-7.188,17.688,13.467,13.467,0,0,1-10.512,0,13.3,13.3,0,0,1-7.2-7.176A13,13,0,0,1,4.488,17.364Zm2.976,0a10.2,10.2,0,0,0,3.108,7.416,10.135,10.135,0,0,0,7.44,3.108,10.2,10.2,0,0,0,5.268-1.416,10.646,10.646,0,0,0,3.852-3.84,10.453,10.453,0,0,0,0-10.548A10.587,10.587,0,0,0,23.28,8.232a10.507,10.507,0,0,0-10.536,0A10.806,10.806,0,0,0,8.88,12.084a10.161,10.161,0,0,0-1.416,5.28Zm9.5,0V9.372a1,1,0,1,1,1.992,0v7.38l4.308,2.508a.979.979,0,0,1,.456.612.9.9,0,0,1-.108.744.934.934,0,0,1-.864.5.835.835,0,0,1-.5-.144L17.664,18.3a.988.988,0,0,1-.5-.348.912.912,0,0,1-.192-.588Z" transform="translate(-4.488 -3.828)"/>
</svg>
