<svg xmlns="http://www.w3.org/2000/svg" width="38.241" height="36.002" viewBox="0 0 38.241 36.002">
  <path id="Icon_fa-solid-paintbrush" data-name="Icon fa-solid-paintbrush" d="M23.857,25.812A6.786,6.786,0,0,0,28.582,22.8L39.952,5.21A3.376,3.376,0,0,0,35.093.675L18.45,13.163a6.74,6.74,0,0,0-2.7,5.351l8.107,7.3ZM22.479,27.6l-8.156-7.341a7.875,7.875,0,0,0-7.53,8.684A2.23,2.23,0,0,1,4.838,31.5H4.5a2.25,2.25,0,0,0,0,4.5H14.625A7.871,7.871,0,0,0,22.5,28.125c0-.176-.007-.352-.014-.527Z" transform="translate(-2.25 0.002)" fill="#fff"/>
</svg>
