<svg xmlns="http://www.w3.org/2000/svg" width="63.598" height="48.633" viewBox="0 0 63.598 48.633">
  <path id="Icon_fa-solid-book-open" data-name="Icon fa-solid-book-open" d="M27.559,50.777a1.851,1.851,0,0,0,2.473-1.711V7.4a1.508,1.508,0,0,0-.552-1.215C27.316,4.458,22.348,2.25,15.9,2.25A40.624,40.624,0,0,0,2,4.911,3.23,3.23,0,0,0,0,7.969V48.855a2.029,2.029,0,0,0,2.661,1.822,47.369,47.369,0,0,1,13.239-2.5C19.642,48.182,24.622,49.728,27.559,50.777Zm8.48,0c2.937-1.049,7.917-2.595,11.66-2.595a47.369,47.369,0,0,1,13.239,2.5A2.024,2.024,0,0,0,63.6,48.855V7.969a3.2,3.2,0,0,0-2-3.047A40.334,40.334,0,0,0,47.7,2.25c-6.448,0-11.417,2.208-13.581,3.931A1.541,1.541,0,0,0,33.566,7.4v41.67a1.854,1.854,0,0,0,2.473,1.711Z" transform="translate(0 -2.25)" fill="#fff"/>
</svg>
