<svg xmlns="http://www.w3.org/2000/svg" width="36" height="31.5" viewBox="0 0 36 31.5">
  <path id="Icon_fa-solid-chart-area" data-name="Icon fa-solid-chart-area" d="M4.5,4.5A2.25,2.25,0,0,0,0,4.5V28.125A5.623,5.623,0,0,0,5.625,33.75H33.75a2.25,2.25,0,0,0,0-4.5H5.625A1.128,1.128,0,0,1,4.5,28.125Zm6.75,20.25H31.5a2.248,2.248,0,0,0,2.25-2.25V17.7a2.24,2.24,0,0,0-.541-1.462l-4.627-5.4a2.244,2.244,0,0,0-3.3-.127l-1.477,1.477a1.688,1.688,0,0,1-2.489-.113l-2.756-3.3a2.253,2.253,0,0,0-3.424-.042L9.555,15.117A2.244,2.244,0,0,0,9,16.6v5.906a2.248,2.248,0,0,0,2.25,2.25Z" transform="translate(0 -2.25)"/>
</svg>
