<svg xmlns="http://www.w3.org/2000/svg" width="27.437" height="39.669" viewBox="0 0 27.437 39.669">
  <path id="stone-path-svgrepo-com" d="M97,18c-.7,1.678-1.9,4.679-3.009,7.992l2.408.075a29.014,29.014,0,0,1,2.292-6.419L99.265,18Zm3.859,0-.692,1.977,3.892.863,5.55-.623A4.58,4.58,0,0,0,110.583,18Zm-1.192,3.4a8.978,8.978,0,0,0-1.642,4.714l3.517.108L103.3,26.2a8.994,8.994,0,0,1,.4-3.9Zm9.292.4-3.742.419a9.878,9.878,0,0,0-.4,3.955l2.592-.033A11.711,11.711,0,0,0,108.957,21.8ZM93.515,27.476c-.942.567-.958,1.575-.783,2.675a27.638,27.638,0,0,0,7.434,1.45,11.5,11.5,0,0,1,.308-3.909Zm13.451.175a17.8,17.8,0,0,1-4.984.067l-.325,4.067a14.361,14.361,0,0,1,4.367.617A27.487,27.487,0,0,1,106.966,27.651Zm-14.6,3.95a11.478,11.478,0,0,0-.745,6.925l3.462-2.1.925-3.85Zm5.142,1.15-.975,4.034,6.609,2.95,4.309.15a19.438,19.438,0,0,1-1.483-5.984,35.147,35.147,0,0,0-8.459-1.15Zm-2.05,5.192-3.7,2.25c.167,1.533.428,3.175.762,4.825l8.867-4.425Zm8.426,3.317.85,5.509c2.042.317,3.559-.325,5.275-.592l.092-1c-.717-1.25-1.392-2.517-1.975-3.775Zm-2.15.792-7.417,3.742,4.934,1.592a5.717,5.717,0,0,0,3.992-.45C103.124,45.26,102.924,43.368,101.732,42.051Zm-8.809,4.875c-1.22.317.758,7.692,1.917,7.392l5.192-1.683-1.667-3.95Zm18.493.45a15.282,15.282,0,0,1-.45,4.984c.825.542,4.084,1.183,4.8,1.375C115.291,51.4,113.449,49.369,111.416,47.377Zm-1.542.317a42.526,42.526,0,0,1-9.826,1.108l1.417,3.367,3.859-1.258a23.61,23.61,0,0,0,4.159,1.175,14.028,14.028,0,0,0,.392-4.392Zm-5.134,4.984a46.874,46.874,0,0,1-9.476,3.092c-.958.658-.125,1.717.592,1.9h12.384Zm1.992.242,3.342,4.75h8.742c-.433-.533-.958-1.183-1.592-2Z" transform="translate(-91.38 -18)" fill="#fff"/>
</svg>
